<?xml version="1.0" encoding="UTF-8" standalone="no"?>
<svg
   xmlns:dc="http://purl.org/dc/elements/1.1/"
   xmlns:cc="http://creativecommons.org/ns#"
   xmlns:rdf="http://www.w3.org/1999/02/22-rdf-syntax-ns#"
   xmlns:svg="http://www.w3.org/2000/svg"
   xmlns="http://www.w3.org/2000/svg"
   id="svg401"
   style="clip-rule:evenodd;fill-rule:evenodd;stroke-linejoin:round;stroke-miterlimit:1.41420996"
   xml:space="preserve"
   version="1.1"
   viewBox="0 0 60 60"
   height="60"
   width="60"><metadata
     id="metadata407"><rdf:RDF><cc:Work
         rdf:about=""><dc:format>image/svg+xml</dc:format><dc:type
           rdf:resource="http://purl.org/dc/dcmitype/StillImage" /><dc:title></dc:title></cc:Work></rdf:RDF></metadata><defs
     id="defs405" /><g
     transform="matrix(0.19993327,0,0,0.19990235,0.01465042,0.01464815)"
     id="Background"><path
       id="path388"
       style="fill:#ffffff"
       d="M 300,30.271 C 300,13.564 286.436,0 269.729,0 H 30.271 C 13.564,0 0,13.564 0,30.271 V 269.729 C 0,286.436 13.564,300 30.271,300 H 269.729 C 286.436,300 300,286.436 300,269.729 Z" /><path
       id="path390"
       d="m 269.925,0.001 c 16.09696,-0.31216393 30.49109,14.175131 30.075,30.27 -0.1061,80.84884 0.21081,161.71193 -0.156,242.552 C 298.61375,288.46369 283.6522,301.15677 268.03194,300 187.74879,299.89388 107.45138,300.21085 27.177,299.844 11.536306,298.61375 -1.1567723,283.6522 0,268.03194 0.10612413,187.74879 -0.21084904,107.45138 0.156,27.177 1.3862455,11.536306 16.347799,-1.1567723 31.968056,0 111.28704,6.6687171e-4 190.60602,-0.00133361 269.925,0.001 Z M 30.296,16 C 22.026584,15.736215 15.016126,23.717706 16,31.873056 16.111802,111.88482 15.777588,191.91917 16.165,271.917 17.162233,279.66957 25.119109,285.09897 32.721585,284 112.42148,283.89656 192.14146,284.20549 271.829,283.848 279.6657,282.88989 285.14515,274.82817 284,267.15842 283.89626,187.49853 284.20589,107.81853 283.848,28.171 282.89006,20.334162 274.82812,14.854983 267.15842,16 188.20428,16 109.25014,16 30.296,16 Z"
       style="fill:#2d67b9" /><g
       id="g394"
       transform="matrix(0.895948,0,0,0.985126,19.5464,116.097)"><path
         id="path392"
         style="fill:#2d67b9"
         d="m 91.957,94.306 c 2.938,0 5.324,2.386 5.324,5.324 v 2.5 h 96.646 v -2.5 c 0,-2.938 2.386,-5.324 5.324,-5.324 h 41.481 c 2.939,0 5.324,2.386 5.324,5.324 v 10.648 c 0,2.939 -2.385,5.324 -5.324,5.324 h -41.481 c -1.855,0 -3.49,-0.95 -4.443,-2.391 l -40.42,8.523 40.041,8.133 c 0.975,-1.243 2.49,-2.042 4.19,-2.042 H 240.1 c 2.939,0 5.324,2.386 5.324,5.324 v 10.648 c 0,2.939 -2.385,5.324 -5.324,5.324 h -41.481 c -2.938,0 -5.324,-2.385 -5.324,-5.324 v -2.824 H 97.281 v 2.824 c 0,2.939 -2.386,5.324 -5.324,5.324 H 50.476 c -2.939,0 -5.324,-2.385 -5.324,-5.324 v -10.648 c 0,-2.938 2.385,-5.324 5.324,-5.324 h 41.481 c 1.301,0 2.493,0.468 3.418,1.244 l 34.35,-7.243 -34.869,-7.082 c -0.835,0.543 -1.83,0.858 -2.899,0.858 H 50.476 c -2.939,0 -5.324,-2.385 -5.324,-5.324 V 99.63 c 0,-2.938 2.385,-5.324 5.324,-5.324 z m 5.324,39.47 v 2.197 h 96.014 v -1.235 L 142.066,124.332 Z M 193.927,107.13 H 97.281 v 3.005 l 44.766,9.092 51.88,-10.939 z" /></g><g
       id="g398"
       transform="matrix(0.765925,0,0,0.714863,35.1113,9.77052)"><path
         id="path396"
         style="fill:#2d67b9"
         d="M 142.23,100.647 V 62.571 L 127.8,77.001 V 54.695 l 22.2,-22.2 22.2,22.2 V 77.049 L 157.801,62.65 v 38.002 c 7.981,1.254 15.337,4.4 21.594,8.964 l 26.933,-26.932 h -20.407 l 15.772,-15.772 h 31.395 v 31.395 l -15.806,15.806 V 93.75 l -26.88,26.88 c 4.56,6.26 7.702,13.618 8.951,21.6 h 38.076 l -14.43,-14.43 h 22.306 l 22.2,22.2 -22.2,22.2 h -22.354 l 14.399,-14.399 h -38.002 c -1.254,7.981 -4.4,15.337 -8.964,21.594 l 26.932,26.933 v -20.407 l 15.772,15.772 v 31.395 h -31.395 l -15.806,-15.806 h 20.363 l -26.88,-26.88 c -6.26,4.56 -13.618,7.702 -21.6,8.951 v 38.076 l 14.43,-14.43 v 22.306 l -22.2,22.2 -22.2,-22.2 v -22.354 l 14.399,14.399 v -38.002 c -7.981,-1.254 -15.337,-4.4 -21.594,-8.964 l -26.933,26.932 h 20.407 L 98.307,233.088 H 66.912 v -31.395 l 15.806,-15.806 v 20.363 l 26.88,-26.88 c -4.56,-6.26 -7.702,-13.618 -8.951,-21.6 H 62.571 l 14.43,14.43 H 54.695 l -22.2,-22.2 22.2,-22.2 H 77.049 L 62.65,142.199 h 38.002 c 1.254,-7.981 4.4,-15.337 8.964,-21.594 L 82.684,93.672 v 20.407 L 66.912,98.307 V 66.912 h 31.395 l 15.806,15.806 H 93.75 l 26.88,26.88 c 6.26,-4.56 13.618,-7.702 21.6,-8.951 z m 7.77,20.142 c 16.122,0 29.211,13.089 29.211,29.211 0,16.122 -13.089,29.211 -29.211,29.211 -16.122,0 -29.211,-13.089 -29.211,-29.211 0,-16.122 13.089,-29.211 29.211,-29.211 z" /></g></g></svg>
