<?xml version="1.0" encoding="UTF-8" standalone="no"?>
<svg
   xmlns:dc="http://purl.org/dc/elements/1.1/"
   xmlns:cc="http://creativecommons.org/ns#"
   xmlns:rdf="http://www.w3.org/1999/02/22-rdf-syntax-ns#"
   xmlns:svg="http://www.w3.org/2000/svg"
   xmlns="http://www.w3.org/2000/svg"
   id="svg1406"
   style="clip-rule:evenodd;fill-rule:evenodd;stroke-linejoin:round;stroke-miterlimit:1.41420996"
   xml:space="preserve"
   version="1.1"
   viewBox="0 0 60 60"
   height="60"
   width="60"><metadata
     id="metadata1412"><rdf:RDF><cc:Work
         rdf:about=""><dc:format>image/svg+xml</dc:format><dc:type
           rdf:resource="http://purl.org/dc/dcmitype/StillImage" /><dc:title></dc:title></cc:Work></rdf:RDF></metadata><defs
     id="defs1410" /><g
     transform="matrix(0.19993327,0,0,0.19990235,0.01465042,0.01464815)"
     id="Background"><path
       id="path1387"
       style="fill:#ffffff"
       d="M 300,30.271 C 300,13.564 286.436,0 269.729,0 H 30.271 C 13.564,0 0,13.564 0,30.271 V 269.729 C 0,286.436 13.564,300 30.271,300 H 269.729 C 286.436,300 300,286.436 300,269.729 Z" /><path
       id="path1389"
       d="m 269.925,0.001 c 16.09696,-0.31216393 30.49109,14.175131 30.075,30.27 -0.1061,80.84884 0.21081,161.71193 -0.156,242.552 C 298.61375,288.46369 283.6522,301.15677 268.03194,300 187.74879,299.89388 107.45138,300.21085 27.177,299.844 11.536306,298.61375 -1.1567723,283.6522 0,268.03194 0.10612413,187.74879 -0.21084904,107.45138 0.156,27.177 1.3862455,11.536306 16.347799,-1.1567723 31.968056,0 111.28704,6.6687171e-4 190.60602,-0.00133361 269.925,0.001 Z M 30.296,16 C 22.026584,15.736215 15.016126,23.717706 16,31.873056 16.111802,111.88482 15.777588,191.91917 16.165,271.917 17.162233,279.66957 25.119109,285.09897 32.721585,284 112.42148,283.89656 192.14146,284.20549 271.829,283.848 279.6657,282.88989 285.14515,274.82817 284,267.15842 283.89626,187.49853 284.20589,107.81853 283.848,28.171 282.89006,20.334162 274.82812,14.854983 267.15842,16 188.20428,16 109.25014,16 30.296,16 Z"
       style="fill:#e3292e" /><g
       id="g1393"
       transform="matrix(0.995498,0,0,1.09458,5.05153,105.774)"><path
         id="path1391"
         style="fill:#e3292e"
         d="m 91.957,94.306 c 2.938,0 5.324,2.386 5.324,5.324 v 2.5 h 96.646 v -2.5 c 0,-2.938 2.386,-5.324 5.324,-5.324 h 41.481 c 2.939,0 5.324,2.386 5.324,5.324 v 10.648 c 0,2.939 -2.385,5.324 -5.324,5.324 h -41.481 c -1.855,0 -3.49,-0.95 -4.443,-2.391 l -40.42,8.523 40.041,8.133 c 0.975,-1.243 2.49,-2.042 4.19,-2.042 H 240.1 c 2.939,0 5.324,2.386 5.324,5.324 v 10.648 c 0,2.939 -2.385,5.324 -5.324,5.324 h -41.481 c -2.938,0 -5.324,-2.385 -5.324,-5.324 v -2.824 H 97.281 v 2.824 c 0,2.939 -2.386,5.324 -5.324,5.324 H 50.476 c -2.939,0 -5.324,-2.385 -5.324,-5.324 v -10.648 c 0,-2.938 2.385,-5.324 5.324,-5.324 h 41.481 c 1.301,0 2.493,0.468 3.418,1.244 l 34.35,-7.243 -34.869,-7.082 c -0.835,0.543 -1.83,0.858 -2.899,0.858 H 50.476 c -2.939,0 -5.324,-2.385 -5.324,-5.324 V 99.63 c 0,-2.938 2.385,-5.324 5.324,-5.324 z m 5.324,39.47 v 2.197 h 96.014 v -1.235 L 142.066,124.332 Z M 193.927,107.13 H 97.281 v 3.005 l 44.766,9.092 51.88,-10.939 z" /></g><g
       id="g1403"
       transform="matrix(0.982722,0,0,0.982722,4.31946,0.492829)"><g
         id="g1397"
         transform="matrix(0.752638,0,0,0.661876,35.3461,20.2348)"><path
           id="path1395"
           style="fill:#e3292e"
           d="M 139.811,98.502 V 54.267 l -18.912,18.912 v -29.29 l 29.096,-29.096 29.096,29.096 V 73.095 L 160.157,54.161 V 98.21 c 11.499,-2.798 22.928,-9.319 33.441,-15.915 15.447,-9.69 29.696,-21.503 45.451,-29.988 2.816,-1.517 5.658,-3.13 8.725,-3.099 4.282,0.112 2.255,7.488 -0.237,12.056 -5.788,10.615 -13.177,20.241 -20.053,30.305 -10.249,15.042 -21.013,30.221 -25.872,47.803 -0.039,0.145 -0.079,0.289 -0.117,0.434 h 44.233 l -18.912,-18.912 h 29.29 l 29.096,29.096 -29.096,29.096 H 226.9 l 18.934,-18.934 h -44.11 c 2.805,11.527 9.398,22.945 15.984,33.439 8.665,13.807 18.639,26.76 27.154,40.563 3.451,5.592 9.091,13.527 4.641,16.192 -2.911,1.744 -6.19,-0.495 -8.981,-1.895 -10.35,-5.192 -19.63,-12.421 -29.31,-19.077 -15.797,-10.84 -31.622,-22.366 -50.142,-27.638 -0.294,-0.084 -0.587,-0.163 -0.881,-0.239 v 44.226 l 18.912,-18.913 v 29.291 l -29.096,29.096 -29.096,-29.096 v -29.206 l 18.934,18.934 V 201.79 c -11.497,2.798 -22.924,9.317 -33.434,15.911 -13.806,8.662 -26.759,18.632 -40.562,27.145 -5.592,3.448 -13.526,9.087 -16.192,4.637 -1.743,-2.911 0.495,-6.189 1.895,-8.979 5.192,-10.349 12.421,-19.625 19.077,-29.303 10.84,-15.794 22.366,-31.614 27.637,-50.132 0.084,-0.295 0.164,-0.59 0.24,-0.885 H 54.272 l 18.912,18.912 H 43.894 L 14.798,150 43.894,120.904 H 73.1 L 54.166,139.838 H 98.209 C 95.41,128.342 88.892,116.916 82.299,106.406 73.637,92.598 63.667,79.642 55.156,65.838 51.707,60.245 46.069,52.309 50.519,49.644 c 2.91,-1.744 6.189,0.495 8.979,1.896 10.347,5.193 19.624,12.424 29.301,19.08 15.793,10.843 31.614,22.371 50.132,27.644 0.293,0.084 0.586,0.163 0.88,0.238 z m 59.627,61.65 h -0.471 c -4.017,19.445 -19.339,34.776 -38.778,38.807 v 0.449 c 1.481,0.339 2.965,0.757 4.449,1.256 10.484,3.526 20.166,9.087 29.577,14.966 15.63,9.763 29.902,21.758 46.113,30.376 2.493,1.324 5.27,3.231 7.854,2.645 1.789,-0.406 -0.259,-4.636 -1.714,-7.489 -0.298,-0.584 -0.607,-1.162 -0.923,-1.736 -5.231,-9.48 -11.748,-18.136 -17.877,-27.045 -10.101,-14.711 -20.455,-29.597 -26.432,-46.111 -0.728,-2.01 -1.33,-4.051 -1.798,-6.118 z m -98.398,0.032 h -0.512 c -2.106,8.684 -6.355,17.235 -10.862,25.17 -9.701,17.076 -21.973,32.646 -32.309,49.204 -2.601,4.166 -6.066,8.514 -6.055,13.106 0.005,2.224 4.589,0.288 7.538,-1.215 0.583,-0.297 1.162,-0.606 1.735,-0.922 9.48,-5.229 18.135,-11.743 27.044,-17.87 14.716,-10.101 29.694,-20.482 46.111,-26.423 2.008,-0.726 4.048,-1.328 6.113,-1.795 v -0.473 C 120.4,194.947 105.069,179.624 101.04,160.184 Z m 38.771,-59.593 c -1.481,-0.339 -2.964,-0.757 -4.448,-1.256 C 124.88,95.809 115.2,90.246 105.792,84.367 90.165,74.602 75.898,62.605 59.691,53.985 57.199,52.66 54.423,50.753 51.84,51.339 c -1.976,0.448 0.274,4.667 1.712,7.49 0.298,0.584 0.606,1.162 0.923,1.736 5.176,9.387 11.708,18.089 17.869,27.049 11.351,16.539 23.663,33.427 28.331,52.224 h 0.36 c 4.02,-19.44 19.34,-34.767 38.776,-38.797 z m 59.599,39.215 c 0.339,-1.479 0.756,-2.961 1.255,-4.443 3.527,-10.484 9.091,-20.165 14.971,-29.574 9.52,-15.234 20.985,-29.228 29.741,-44.922 1.546,-2.772 3.599,-5.684 3.333,-8.783 -0.041,-0.477 -0.395,-0.797 -1.08,-0.794 -5.54,0.115 -10.738,4.504 -16.298,8.13 -21.314,13.899 -41.333,30.758 -65.061,39.345 -2.007,0.726 -4.048,1.328 -6.114,1.795 v 0.474 c 19.44,4.018 34.769,19.337 38.801,38.772 z" /></g><g
         id="g1401"
         transform="matrix(0.920514,0,0,0.809508,10.1648,-1.90998)"><circle
           id="circle1399"
           style="fill:#ffffff"
           r="28.177"
           cy="150"
           cx="150" /></g></g></g></svg>
