<?xml version="1.0" encoding="UTF-8" standalone="no"?>
<svg
   xmlns:dc="http://purl.org/dc/elements/1.1/"
   xmlns:cc="http://creativecommons.org/ns#"
   xmlns:rdf="http://www.w3.org/1999/02/22-rdf-syntax-ns#"
   xmlns:svg="http://www.w3.org/2000/svg"
   xmlns="http://www.w3.org/2000/svg"
   id="svg1129"
   style="clip-rule:evenodd;fill-rule:evenodd;stroke-linecap:round;stroke-linejoin:round;stroke-miterlimit:1.5"
   xml:space="preserve"
   version="1.1"
   viewBox="0 0 60 60"
   height="60"
   width="60"><metadata
     id="metadata1135"><rdf:RDF><cc:Work
         rdf:about=""><dc:format>image/svg+xml</dc:format><dc:type
           rdf:resource="http://purl.org/dc/dcmitype/StillImage" /><dc:title></dc:title></cc:Work></rdf:RDF></metadata><defs
     id="defs1133" /><g
     transform="matrix(0.19993327,0,0,0.19990235,0.01465042,0.01464815)"
     id="g1127"><g
       id="Background"><path
         id="path1108"
         style="fill:#ffffff"
         d="M 300,30.271 C 300,13.564 286.436,0 269.729,0 H 30.271 C 13.564,0 0,13.564 0,30.271 V 269.729 C 0,286.436 13.564,300 30.271,300 H 269.729 C 286.436,300 300,286.436 300,269.729 Z" /><path
         id="path1110"
         d="m 269.925,0.001 c 16.09696,-0.31216393 30.49109,14.175131 30.075,30.27 -0.1061,80.84884 0.21081,161.71193 -0.156,242.552 C 298.61375,288.46369 283.6522,301.15677 268.03194,300 187.74879,299.89388 107.45138,300.21085 27.177,299.844 11.536306,298.61375 -1.1567723,283.6522 0,268.03194 0.10612413,187.74879 -0.21084904,107.45138 0.156,27.177 1.3862455,11.536306 16.347799,-1.1567723 31.968056,0 111.28704,6.6687171e-4 190.60602,-0.00133361 269.925,0.001 Z M 30.296,16 C 22.026584,15.736215 15.016126,23.717706 16,31.873056 16.111802,111.88482 15.777588,191.91917 16.165,271.917 17.162233,279.66957 25.119109,285.09897 32.721585,284 112.42148,283.89656 192.14146,284.20549 271.829,283.848 279.6657,282.88989 285.14515,274.82817 284,267.15842 283.89626,187.49853 284.20589,107.81853 283.848,28.171 282.89006,20.334162 274.82812,14.854983 267.15842,16 188.20428,16 109.25014,16 30.296,16 Z"
         style="fill:#e3292e" /><g
         id="g1114"
         transform="matrix(0.995498,0,0,1.09458,5.05153,-38.5214)"><path
           id="path1112"
           style="fill:#e3292e"
           d="m 91.957,94.306 c 2.938,0 5.324,2.386 5.324,5.324 v 2.5 h 96.646 v -2.5 c 0,-2.938 2.386,-5.324 5.324,-5.324 h 41.481 c 2.939,0 5.324,2.386 5.324,5.324 v 10.648 c 0,2.939 -2.385,5.324 -5.324,5.324 h -41.481 c -1.855,0 -3.49,-0.95 -4.443,-2.391 l -40.42,8.523 40.041,8.133 c 0.975,-1.243 2.49,-2.042 4.19,-2.042 H 240.1 c 2.939,0 5.324,2.386 5.324,5.324 v 10.648 c 0,2.939 -2.385,5.324 -5.324,5.324 h -41.481 c -2.938,0 -5.324,-2.385 -5.324,-5.324 v -2.824 H 97.281 v 2.824 c 0,2.939 -2.386,5.324 -5.324,5.324 H 50.476 c -2.939,0 -5.324,-2.385 -5.324,-5.324 v -10.648 c 0,-2.938 2.385,-5.324 5.324,-5.324 h 41.481 c 1.301,0 2.493,0.468 3.418,1.244 l 34.35,-7.243 -34.869,-7.082 c -0.835,0.543 -1.83,0.858 -2.899,0.858 H 50.476 c -2.939,0 -5.324,-2.385 -5.324,-5.324 V 99.63 c 0,-2.938 2.385,-5.324 5.324,-5.324 z m 5.324,39.47 v 2.197 h 96.014 v -1.235 L 142.066,124.332 Z M 193.927,107.13 H 97.281 v 3.005 l 44.766,9.092 51.88,-10.939 z" /></g><g
         id="g1124"
         transform="matrix(0.780226,0,0,0.780226,30.9688,87.7879)"><g
           id="g1118"
           transform="matrix(1.20074,0,0,1.20074,-12.8438,-32.7885)"><path
             id="path1116"
             style="fill:#e3292e"
             d="m 97.714,142.577 c -0.544,3.387 -1.878,6.512 -3.807,9.178 l 10.153,10.153 4.508,-4.507 V 171.27 H 94.699 l 4.507,-4.508 -10.153,-10.153 c -2.666,1.929 -5.791,3.263 -9.178,3.807 v 14.354 h 6.374 l -9.807,9.806 -9.806,-9.806 h 6.374 v -14.354 c -3.387,-0.544 -6.512,-1.878 -9.178,-3.807 l -10.154,10.153 4.508,4.508 H 44.317 v -13.869 l 4.508,4.507 10.153,-10.153 c -1.929,-2.666 -3.263,-5.791 -3.807,-9.178 H 40.817 v 6.374 l -9.806,-9.807 9.806,-9.806 v 6.374 h 14.354 c 0.544,-3.387 1.878,-6.512 3.807,-9.178 l -10.153,-10.154 -4.508,4.508 v -13.869 h 13.869 l -4.508,4.508 10.154,10.153 c 2.666,-1.929 5.791,-3.263 9.178,-3.807 v -14.354 h -6.374 l 9.806,-9.806 9.807,9.806 h -6.374 v 14.354 c 3.387,0.544 6.512,1.878 9.178,3.807 l 10.153,-10.153 -4.507,-4.508 h 13.869 v 13.869 l -4.508,-4.508 -10.153,10.154 c 1.929,2.666 3.263,5.791 3.807,9.178 h 80.076 c 0.543,-3.387 1.877,-6.512 3.806,-9.178 l -10.153,-10.154 -4.507,4.508 v -13.869 h 13.868 l -4.507,4.508 10.153,10.153 c 2.667,-1.929 5.791,-3.263 9.179,-3.807 v -14.354 h -6.375 l 9.807,-9.806 9.806,9.806 h -6.374 v 14.354 c 3.387,0.544 6.512,1.878 9.178,3.807 l 10.154,-10.153 -4.507,-4.508 h 13.868 v 13.869 l -4.507,-4.508 -10.154,10.154 c 1.929,2.666 3.264,5.791 3.807,9.178 h 14.354 v -6.374 l 9.807,9.806 -9.807,9.807 v -6.374 h -14.354 c -0.543,3.387 -1.878,6.512 -3.807,9.178 l 10.154,10.153 4.507,-4.507 v 13.869 h -13.868 l 4.507,-4.508 -10.154,-10.153 c -2.666,1.929 -5.791,3.263 -9.178,3.807 v 14.354 h 6.374 l -9.806,9.806 -9.807,-9.806 h 6.375 v -14.354 c -3.388,-0.544 -6.512,-1.878 -9.179,-3.807 l -10.153,10.153 4.507,4.508 h -13.868 v -13.869 l 4.507,4.507 10.153,-10.153 c -1.929,-2.666 -3.263,-5.791 -3.806,-9.178 z" /></g><g
           id="g1122"
           transform="matrix(0.853778,0,0,0.853778,36.592,70.2811)"><ellipse
             id="ellipse1120"
             style="fill:none;stroke:#e3292e;stroke-width:9.38000011px"
             ry="23.167999"
             rx="13.82"
             cy="74.969002"
             cx="135.82899" /></g></g></g></g></svg>
