<?xml version="1.0" encoding="UTF-8" standalone="no"?>
<svg
   xmlns:dc="http://purl.org/dc/elements/1.1/"
   xmlns:cc="http://creativecommons.org/ns#"
   xmlns:rdf="http://www.w3.org/1999/02/22-rdf-syntax-ns#"
   xmlns:svg="http://www.w3.org/2000/svg"
   xmlns="http://www.w3.org/2000/svg"
   id="svg2"
   style="clip-rule:evenodd;fill-rule:evenodd;stroke-linejoin:round;stroke-miterlimit:1.41420996"
   xml:space="preserve"
   version="1.1"
   viewBox="0 0 60 60"
   height="60"
   width="60"><metadata
     id="metadata25"><rdf:RDF><cc:Work
         rdf:about=""><dc:format>image/svg+xml</dc:format><dc:type
           rdf:resource="http://purl.org/dc/dcmitype/StillImage" /><dc:title></dc:title></cc:Work></rdf:RDF></metadata><defs
     id="defs23" /><g
     transform="matrix(0.19997959,0,0,0.19995118,0.00612242,3.3238395e-4)"
     id="Background_circle"><g
       id="g5"><g
         id="g7"><circle
           id="circle9"
           style="fill:#ffffff"
           r="150"
           cy="150"
           cx="150" /><path
           id="path11"
           d="m 150.485,0.001 c 49.5244,-0.30805092 97.99005,26.13918 124.885,67.66 29.14949,43.41669 32.66869,102.35469 9.029,148.98 -22.3226,45.72399 -69.26524,78.27982 -120.017,82.677 C 116.79963,304.27157 67.626954,284.53159 36.597,248.141 4.2284143,211.43134 -7.8772602,158.34647 5.079,111.186 18.20087,60.591626 59.782145,18.758853 110.292,5.321 c 13.07378,-3.5887368 26.6371,-5.36778112 40.193,-5.32 z m -0.919,16 C 104.07954,15.682674 59.676029,40.73106 36.035,79.522 10.237529,120.258 9.3382219,175.08668 33.754,216.66 c 22.507056,39.83833 66.53845,66.428 112.351,67.284 44.86675,1.74378 89.5149,-21.18229 114.552,-58.394 27.38615,-39.18451 30.93913,-93.31402 9.052,-135.793 C 249.0838,48.105271 205.50868,18.954337 159.041,16.3 c -3.15359,-0.209033 -6.31449,-0.309606 -9.475,-0.299 z"
           style="fill:#e3292e" /></g><g
         id="g13"
         transform="matrix(0.809561,0,0,0.841415,28.5658,23.787)"><path
           id="path15"
           style="fill:#e3292e"
           d="m 139.811,98.502 0,-44.235 -18.912,18.912 0,-29.29 29.096,-29.096 29.096,29.096 0,29.206 -18.934,-18.934 0,44.049 c 11.499,-2.798 22.928,-9.319 33.441,-15.915 15.447,-9.69 29.696,-21.503 45.451,-29.988 2.816,-1.517 5.658,-3.13 8.725,-3.099 4.282,0.112 2.255,7.488 -0.237,12.056 -5.788,10.615 -13.177,20.241 -20.053,30.305 -10.249,15.042 -21.013,30.221 -25.872,47.803 -0.039,0.145 -0.079,0.289 -0.117,0.434 l 44.233,0 -18.912,-18.912 29.29,0 29.096,29.096 -29.096,29.096 -29.206,0 18.934,-18.934 -44.11,0 c 2.805,11.527 9.398,22.945 15.984,33.439 8.665,13.807 18.639,26.76 27.154,40.563 3.451,5.592 9.091,13.527 4.641,16.192 -2.911,1.744 -6.19,-0.495 -8.981,-1.895 -10.35,-5.192 -19.63,-12.421 -29.31,-19.077 -15.797,-10.84 -31.622,-22.366 -50.142,-27.638 -0.294,-0.084 -0.587,-0.163 -0.881,-0.239 l 0,44.226 18.912,-18.913 0,29.291 -29.096,29.096 -29.096,-29.096 0,-29.206 18.934,18.934 0,-44.039 c -11.497,2.798 -22.924,9.317 -33.434,15.911 -13.806,8.662 -26.759,18.632 -40.562,27.145 -5.592,3.448 -13.526,9.087 -16.192,4.637 -1.743,-2.911 0.495,-6.189 1.895,-8.979 5.192,-10.349 12.421,-19.625 19.077,-29.303 10.84,-15.794 22.366,-31.614 27.637,-50.132 0.084,-0.295 0.164,-0.59 0.24,-0.885 l -44.232,0 18.912,18.912 -29.29,0 L 14.798,150 l 29.096,-29.096 29.206,0 -18.934,18.934 44.043,0 C 95.41,128.342 88.892,116.916 82.299,106.406 73.637,92.598 63.667,79.642 55.156,65.838 51.707,60.245 46.069,52.309 50.519,49.644 c 2.91,-1.744 6.189,0.495 8.979,1.896 10.347,5.193 19.624,12.424 29.301,19.08 15.793,10.843 31.614,22.371 50.132,27.644 0.293,0.084 0.586,0.163 0.88,0.238 z m 59.627,61.65 -0.471,0 c -4.017,19.445 -19.339,34.776 -38.778,38.807 l 0,0.449 c 1.481,0.339 2.965,0.757 4.449,1.256 10.484,3.526 20.166,9.087 29.577,14.966 15.63,9.763 29.902,21.758 46.113,30.376 2.493,1.324 5.27,3.231 7.854,2.645 1.789,-0.406 -0.259,-4.636 -1.714,-7.489 -0.298,-0.584 -0.607,-1.162 -0.923,-1.736 -5.231,-9.48 -11.748,-18.136 -17.877,-27.045 -10.101,-14.711 -20.455,-29.597 -26.432,-46.111 -0.728,-2.01 -1.33,-4.051 -1.798,-6.118 z m -98.398,0.032 -0.512,0 c -2.106,8.684 -6.355,17.235 -10.862,25.17 -9.701,17.076 -21.973,32.646 -32.309,49.204 -2.601,4.166 -6.066,8.514 -6.055,13.106 0.005,2.224 4.589,0.288 7.538,-1.215 0.583,-0.297 1.162,-0.606 1.735,-0.922 9.48,-5.229 18.135,-11.743 27.044,-17.87 14.716,-10.101 29.694,-20.482 46.111,-26.423 2.008,-0.726 4.048,-1.328 6.113,-1.795 l 0,-0.473 C 120.4,194.947 105.069,179.624 101.04,160.184 Z m 38.771,-59.593 c -1.481,-0.339 -2.964,-0.757 -4.448,-1.256 C 124.88,95.809 115.2,90.246 105.792,84.367 90.165,74.602 75.898,62.605 59.691,53.985 57.199,52.66 54.423,50.753 51.84,51.339 c -1.976,0.448 0.274,4.667 1.712,7.49 0.298,0.584 0.606,1.162 0.923,1.736 5.176,9.387 11.708,18.089 17.869,27.049 11.351,16.539 23.663,33.427 28.331,52.224 l 0.36,0 c 4.02,-19.44 19.34,-34.767 38.776,-38.797 l 0,-0.45 z m 59.599,39.215 c 0.339,-1.479 0.756,-2.961 1.255,-4.443 3.527,-10.484 9.091,-20.165 14.971,-29.574 9.52,-15.234 20.985,-29.228 29.741,-44.922 1.546,-2.772 3.599,-5.684 3.333,-8.783 -0.041,-0.477 -0.395,-0.797 -1.08,-0.794 -5.54,0.115 -10.738,4.504 -16.298,8.13 -21.314,13.899 -41.333,30.758 -65.061,39.345 -2.007,0.726 -4.048,1.328 -6.114,1.795 l 0,0.474 c 19.44,4.018 34.769,19.337 38.801,38.772 l 0.452,0 z" /><g
           id="g17"
           transform="matrix(1.22305,0,0,1.22305,-33.4576,-33.4576)"><circle
             id="circle19"
             style="fill:#ffffff"
             r="28.177"
             cy="150"
             cx="150" /></g></g></g></g></svg>
